<svg version="1.1" id="Layer_1" xmlns="http://www.w3.org/2000/svg" xmlns:xlink="http://www.w3.org/1999/xlink" x="0px" y="0px"
	 width="18px" height="18px" viewBox="0 0 18 18" enable-background="new 0 0 18 18" xml:space="preserve">
<g>
	<g>
		<path fill-rule="evenodd" clip-rule="evenodd" fill="#FEFEFE" d="M9.157,18.15c-2.847,0-5.694-0.005-8.541,0.006
			c-0.335,0.002-0.479-0.024-0.478-0.439C0.156,11.998,0.154,6.279,0.139,0.56c0-0.36,0.079-0.42,0.425-0.419
			c5.719,0.013,11.438,0.016,17.157-0.004c0.428-0.001,0.434,0.161,0.434,0.484c-0.007,5.694-0.01,11.388,0.005,17.083
			c0.001,0.381-0.094,0.458-0.462,0.456C14.851,18.143,12.004,18.15,9.157,18.15z"/>
		<path fill-rule="evenodd" clip-rule="evenodd" fill="#F9D8BE" d="M3.422,14.402c-0.56-0.937-0.831-1.945-0.883-3.039
			C2.41,8.627,2.914,6.053,4.437,3.742c1.192-1.809,2.695-3.126,5.059-3c1.601,0.085,2.727,0.999,3.731,2.102
			c0.481,0.53,0.857,1.158,1.168,1.813c0.1,2.786-0.604,5.335-2.337,7.54c-1.372,1.744-3.212,2.645-5.435,2.702
			C5.532,14.927,4.42,15.01,3.422,14.402z"/>
		<path fill-rule="evenodd" clip-rule="evenodd" fill="#EFB78D" d="M3.422,14.402c0.959,0.109,1.895,0.336,2.88,0.319
			c3.186-0.057,5.34-1.648,6.727-4.401c0.817-1.623,1.152-3.376,1.221-5.185c0.006-0.172-0.02-0.354,0.146-0.479
			c1.388,2.836,1.9,5.783,0.91,8.842c-0.776,2.398-3.127,3.973-5.653,4.078c-2.541,0.106-4.6-0.711-6.069-2.84
			C3.514,14.637,3.476,14.514,3.422,14.402z"/>
	</g>
</g>
</svg>
