<?xml version="1.0" encoding="utf-8"?>
<!-- Generator: Adobe Illustrator 16.0.0, SVG Export Plug-In . SVG Version: 6.00 Build 0)  -->
<!DOCTYPE svg PUBLIC "-//W3C//DTD SVG 1.1//EN" "http://www.w3.org/Graphics/SVG/1.1/DTD/svg11.dtd">
<svg version="1.1" id="Layer_1" xmlns="http://www.w3.org/2000/svg" xmlns:xlink="http://www.w3.org/1999/xlink" x="0px" y="0px"
	 width="18px" height="18px" viewBox="0 0 18 18" enable-background="new 0 0 18 18" xml:space="preserve">
<g>
	<g>
		<path fill-rule="evenodd" clip-rule="evenodd" fill="#FEFEFE" d="M7.95,17.608c-2.447,0-4.895-0.008-7.342,0.008
			c-0.354,0.002-0.47-0.053-0.469-0.449C0.155,11.474,0.156,5.78,0.137,0.086C0.135-0.35,0.25-0.403,0.646-0.402
			c5.669,0.015,11.338,0.015,17.006,0c0.395-0.001,0.512,0.05,0.51,0.487c-0.02,5.693-0.018,11.388-0.002,17.082
			c0.002,0.393-0.111,0.453-0.469,0.449c-2.197-0.016-4.395-0.008-6.592-0.008c-0.059-0.127-0.021-0.246,0.047-0.348
			c0.377-0.557,0.406-1.145,0.203-1.768c-0.061-0.186-0.102-0.383-0.057-0.582c0.066-0.209,0.234-0.281,0.426-0.324
			c0.139-0.027,0.277-0.055,0.402-0.125c0.232-0.15,0.48-0.271,0.75-0.334c1.645-0.377,2.504-1.551,2.801-3.074
			c0.209-1.073,0.635-2.162,0.313-3.301c-0.035-0.119-0.016-0.262,0.057-0.363c0.34-0.478,0.229-0.852-0.182-1.242
			c-0.432-0.407-0.891-0.425-1.383-0.222c-0.438,0.181-0.875,0.379-1.268,0.643c-0.326,0.218-0.664,0.332-1.047,0.347
			c-0.107,0.011-0.209-0.003-0.305-0.055c-1.037-0.488-1.375-1.508-1.846-2.428C9.542,3.513,9,2.657,7.949,2.297
			C7.82,2.243,7.687,2.207,7.546,2.199C7.289,2.179,7.04,2.131,6.808,2.012C6.096,1.627,5.396,1.644,4.686,2.04
			C4.179,2.322,3.881,2.708,3.979,3.304c0.077,0.464-0.144,0.693-0.545,0.832C3.037,4.274,2.627,4.389,2.317,4.705
			C2.017,5.011,1.954,5.371,2.349,5.572c0.75,0.381,0.906,1.137,1.263,1.771c0.227,0.92,0.203,1.844,0.045,2.77
			c-0.002,0.185-0.003,0.368,0.059,0.546c0.474,1.885,1.605,3.143,3.5,3.672c0.265,0.074,0.499,0.221,0.758,0.307
			c0.201,0.08,0.421,0.08,0.625,0.154c0.068,0.031,0.126,0.076,0.174,0.135c0.212,0.721,0.244,1.398-0.53,1.82
			C7.859,16.956,8.035,17.319,7.95,17.608z"/>
		<path fill-rule="evenodd" clip-rule="evenodd" fill="#FBC31F" d="M7.95,17.608c-0.32-0.445-0.452-0.803,0.246-1.061
			c0.798-0.293,0.424-1.061,0.549-1.625c0.312-0.291,0.651-0.242,0.999-0.08c0.569,1.266,0.002,2.432-1.344,2.766
			C8.25,17.608,8.1,17.608,7.95,17.608z"/>
		<path fill-rule="evenodd" clip-rule="evenodd" fill="#FBC523" d="M11.396,14.903c0.262,0.941,0.547,1.885-0.297,2.705
			c-0.199,0-0.4,0-0.6,0c-0.225-0.119-0.371-0.33-0.279-0.553c0.289-0.707,0.131-1.414,0.072-2.123
			C10.654,14.667,11.023,14.741,11.396,14.903z"/>
		<path fill-rule="evenodd" clip-rule="evenodd" fill="#FEFDFB" d="M10.371,14.919c0.236,0.68,0.523,1.352,0.037,2.053
			c-0.145,0.209,0.055,0.424,0.092,0.637c-0.701,0-1.4,0-2.101,0c1.229-0.611,1.467-1.094,1.329-2.688
			C9.941,14.728,10.156,14.728,10.371,14.919z"/>
		<path fill-rule="evenodd" clip-rule="evenodd" fill="#DFDFDF" d="M10.371,14.919c-0.215,0-0.429,0-0.643,0.002
			c-0.328,0-0.656,0.002-0.983,0.002c-0.063-0.006-0.127-0.014-0.19-0.02c-0.162-0.215-0.396-0.125-0.605-0.146
			c-2.081-0.471-3.672-1.516-4.303-3.68C3.612,10.96,3.614,10.831,3.6,10.708c-0.001-0.166,0.02-0.34-0.145-0.454
			c0.152-1.006,0.103-2.013,0.008-3.02c0.525-0.218,1.054-0.399,1.279-1.027C4.858,5.882,5.256,5.85,5.558,5.737
			c0.637-0.239,0.909-0.669,0.834-1.328C6.328,3.838,6.018,3.534,5.427,3.454C4.855,3.376,4.739,3.008,5.148,2.582
			c0.468-0.489,1.078-0.691,1.749-0.716C7.128,2,7.382,2.023,7.643,2.014C7.718,2.12,7.823,2.163,7.95,2.162
			C9.001,2.366,9.5,3.196,9.992,4.009c0.293,0.484,0.527,1.007,0.764,1.524c0.203,0.444,0.447,0.836,0.955,0.956
			c0.219,0.051,0.211,0.154,0.146,0.312c-0.027,0.082-0.025,0.155,0.061,0.208c0.482,0.251,1.027,0.175,1.535,0.302
			c0.445,0.112,0.559,0.336,0.637,0.824c0.166,1.022-0.275,1.857-0.561,2.75c-0.186,0.58-1.223,1-2.135,0.869
			c-1.189-0.172-2.276-0.564-3.168-1.671c0.943,1.569,2.883,2.304,4.469,1.812c0.547-0.17,0.965-0.475,1.264-0.98
			c0.613-1.037,0.746-2.131,0.486-3.288c-0.09-0.399-0.404-0.45-0.748-0.476c-0.516-0.039-1.049,0.118-1.543-0.146
			c-0.051-0.065-0.051-0.131-0.006-0.197c0.723-0.187,1.334-0.609,1.986-0.943c0.93-0.478,1.826-0.263,2.301,0.606
			c0.115,0.208,0.121,0.472-0.031,0.639c-0.361,0.401-0.24,0.77-0.094,1.223c0.197,0.606-0.254,1.16-0.295,1.785
			c-0.105,1.663-0.707,3.128-2.316,3.929c-0.488,0.244-1.031,0.379-1.549,0.564c-0.127-0.004-0.232,0.039-0.307,0.145
			c-0.162,0.01-0.338-0.016-0.447,0.15C11.057,15.024,10.713,14.909,10.371,14.919z"/>
		<path fill-rule="evenodd" clip-rule="evenodd" fill="#EC6C31" d="M6.897,1.865C6.495,2.224,5.912,2.161,5.489,2.474
			c-0.225,0.167-0.5,0.344-0.434,0.64c0.072,0.32,0.39,0.069,0.576,0.136c0.538,0.195,0.953,0.502,0.975,1.154
			C6.633,5.209,6.334,5.779,5.687,5.91c-0.505,0.102-0.84,0.265-1.024,0.805c-0.179,0.524-0.695,0.582-1.2,0.519
			C3.319,7.067,3.065,6.909,3.051,6.73C3.005,6.188,2.672,6.003,2.24,5.799C1.704,5.546,1.662,5.065,2.075,4.645
			c0.138-0.14,0.3-0.279,0.478-0.353c0.711-0.291,1.452-0.428,1.27-1.569C3.72,2.074,4.557,1.752,5.071,1.619
			C5.638,1.472,6.358,1.307,6.897,1.865z"/>
		<path fill-rule="evenodd" clip-rule="evenodd" fill="#ECECEC" d="M7.95,14.757c0.464-0.252,0.584-0.223,0.605,0.146
			C8.344,14.89,8.11,14.978,7.95,14.757z"/>
		<path fill-rule="evenodd" clip-rule="evenodd" fill="#EDEDED" d="M3.455,10.254c0.088,0,0.238-0.029,0.254,0.004
			c0.077,0.165,0.06,0.333-0.109,0.45C3.423,10.597,3.453,10.421,3.455,10.254z"/>
		<path fill-rule="evenodd" clip-rule="evenodd" fill="#C1C9CE" d="M11.563,7.096c-0.215-0.411,0.164-0.23,0.295-0.295
			c0.098,0.001,0.195,0.003,0.291,0.005c0.002,0.049,0.006,0.098,0.008,0.146C12.002,7.179,11.734,6.94,11.563,7.096z"/>
		<path fill-rule="evenodd" clip-rule="evenodd" fill="#EEEEEE" d="M7.95,2.162C7.876,2.28,7.764,2.341,7.643,2.271
			c-0.114-0.065-0.013-0.17,0-0.257C7.771,2.011,7.884,2.037,7.95,2.162z"/>
		<path fill-rule="evenodd" clip-rule="evenodd" fill="#EDEDED" d="M11.844,14.753c-0.014-0.088-0.115-0.193,0-0.258
			c0.123-0.068,0.234-0.008,0.307,0.113C12.082,14.731,11.971,14.757,11.844,14.753z"/>
		<path fill-rule="evenodd" clip-rule="evenodd" fill="#B0BEC4" d="M11.563,7.096c0.158-0.211,0.393-0.109,0.594-0.144
			c0.6,0.002,1.199,0.021,1.797,0c0.406-0.014,0.66,0.208,0.684,0.543c0.029,0.417,0.176,0.809,0.201,1.21
			c0.105,1.553-0.998,3.15-2.338,3.458c-1.703,0.393-3.949-0.617-4.514-2.038c-0.041-0.102-0.005-0.235-0.005-0.434
			c0.665,0.504,1.104,1.179,1.862,1.447c0.823,0.291,1.64,0.639,2.526,0.324c0.453-0.16,1.203-0.086,0.938-0.965
			c0.678-0.208,0.154-0.991,0.631-1.318c0.164-0.113,0.184-0.352-0.029-0.514c-0.113-0.086-0.295-0.16-0.172-0.343
			c0.621-0.912-0.256-0.833-0.654-0.875C12.553,7.391,12.063,7.238,11.563,7.096z"/>
		<path fill-rule="evenodd" clip-rule="evenodd" fill="#FBBE1B" d="M2.609,5.169C3.043,4.897,3.415,4.37,3.957,4.684
			c0.214,0.125,0.202,0.674,0.027,0.813C3.476,5.899,3.086,5.298,2.609,5.169z"/>
		<path fill-rule="evenodd" clip-rule="evenodd" fill="#E0D4CE" d="M5.506,4.01C5.802,4.056,5.93,4.273,5.938,4.53
			c0.009,0.3-0.147,0.558-0.479,0.532C5.176,5.041,5.064,4.799,5.07,4.52C5.076,4.232,5.219,4.062,5.506,4.01z"/>
	</g>
</g>
</svg>
